# xmcd CD database file
#
# Track frame offsets:
#	150
#	15409
#	27275
#	43486
#	57887
#	66936
#	70176
#	86096
#	102955
#	112368
#	127318
#	139863
#
# Disc length: 2153 seconds
#
# Revision: 0
# Processed by: cddbd v1.5.2PL0 Copyright (c) Steve Scherf et al.
# Submitted via: CDex 1.70beta2
#
DISCID=b708670c
DTITLE=Das Spardosen-Terzett - Leonce und Lena
DYEAR=2004
DGENRE=Jazz
TTITLE0=Rosetta
TTITLE1=Jazz und Musik
TTITLE2=Lena
TTITLE3=König Peters Palast
TTITLE4=Just In Time
TTITLE5=Staatsrat
TTITLE6=MIR
TTITLE7=Leonce Trance
TTITLE8=Prager Schinken
TTITLE9=Immer Wieder
TTITLE10=Vollversammlung
TTITLE11=König Peter Denkt
EXTD=YEAR: 2004
EXTT0=
EXTT1=
EXTT2=
EXTT3=
EXTT4=
EXTT5=
EXTT6=
EXTT7=
EXTT8=
EXTT9=
EXTT10=
EXTT11=
PLAYORDER=
